<svg width="56" height="34" viewBox="0 0 56 34" fill="none" xmlns="http://www.w3.org/2000/svg">
<g id="MasterCard Logo" clip-path="url(#clip0_304_410)">
<g id="Group">
<path id="Vector" fill-rule="evenodd" clip-rule="evenodd" d="M20.2197 30.3216H35.2077V3.62952H20.2197V30.3216Z" fill="#FF5F00"/>
<path id="Vector_2" fill-rule="evenodd" clip-rule="evenodd" d="M21.1714 16.9755C21.1714 11.5603 23.7298 6.73739 27.7137 3.62946C24.7999 1.35615 21.1238 0 17.1279 0C7.66838 0 0.000244141 7.60031 0.000244141 16.9755C0.000244141 26.3507 7.66838 33.951 17.1279 33.951C21.1238 33.951 24.7999 32.5949 27.7137 30.3216C23.7298 27.2132 21.1714 22.3907 21.1714 16.9755Z" fill="#EB001B"/>
<path id="Vector_3" fill-rule="evenodd" clip-rule="evenodd" d="M54.8926 27.4945V26.8358H54.7189L54.5195 27.2889L54.3197 26.8358H54.146V27.4945H54.2683V26.9975L54.4558 27.4262H54.5828L54.7703 26.9966V27.4945H54.8926ZM53.793 27.4945V26.948H54.0157V26.8367H53.4494V26.948H53.6716V27.4945H53.793ZM55.4274 16.9754C55.4274 26.3506 47.7588 33.9509 38.2997 33.9509C34.3038 33.9509 30.6272 32.5947 27.7139 30.3214C31.6978 27.2135 34.2562 22.3906 34.2562 16.9754C34.2562 11.5607 31.6978 6.73774 27.7139 3.62934C30.6272 1.35603 34.3038 -0.00012207 38.2997 -0.00012207C47.7588 -0.00012207 55.4274 7.60019 55.4274 16.9754Z" fill="#F79E1B"/>
</g>
</g>
<defs>
<clipPath id="clip0_304_410">
<rect width="56" height="34" fill="white"/>
</clipPath>
</defs>
</svg>
